<svg width="34" height="34" viewBox="0 0 34 34" fill="none" xmlns="http://www.w3.org/2000/svg">
<rect width="34" height="34" fill="#F5F5F5"/>
<rect width="1440" height="2247" transform="translate(-402 -521)" fill="white"/>
<mask id="path-1-outside-1_0_1" maskUnits="userSpaceOnUse" x="9.19995" y="9.20001" width="16" height="16" fill="black">
<rect fill="white" x="9.19995" y="9.20001" width="16" height="16"/>
<path d="M18.0461 11.2462C18.0461 10.6675 17.5786 10.2 17 10.2C16.4213 10.2 15.9538 10.6675 15.9538 11.2462V15.9539H11.2461C10.6675 15.9539 10.2 16.4214 10.2 17C10.2 17.5787 10.6675 18.0462 11.2461 18.0462H15.9538V22.7539C15.9538 23.3325 16.4213 23.8 17 23.8C17.5786 23.8 18.0461 23.3325 18.0461 22.7539V18.0462H22.7538C23.3325 18.0462 23.8 17.5787 23.8 17C23.8 16.4214 23.3325 15.9539 22.7538 15.9539H18.0461V11.2462Z"/>
</mask>
<path d="M18.0461 11.2462C18.0461 10.6675 17.5786 10.2 17 10.2C16.4213 10.2 15.9538 10.6675 15.9538 11.2462V15.9539H11.2461C10.6675 15.9539 10.2 16.4214 10.2 17C10.2 17.5787 10.6675 18.0462 11.2461 18.0462H15.9538V22.7539C15.9538 23.3325 16.4213 23.8 17 23.8C17.5786 23.8 18.0461 23.3325 18.0461 22.7539V18.0462H22.7538C23.3325 18.0462 23.8 17.5787 23.8 17C23.8 16.4214 23.3325 15.9539 22.7538 15.9539H18.0461V11.2462Z" fill="#629584"/>
<path d="M18.0461 11.2462C18.0461 10.6675 17.5786 10.2 17 10.2C16.4213 10.2 15.9538 10.6675 15.9538 11.2462V15.9539H11.2461C10.6675 15.9539 10.2 16.4214 10.2 17C10.2 17.5787 10.6675 18.0462 11.2461 18.0462H15.9538V22.7539C15.9538 23.3325 16.4213 23.8 17 23.8C17.5786 23.8 18.0461 23.3325 18.0461 22.7539V18.0462H22.7538C23.3325 18.0462 23.8 17.5787 23.8 17C23.8 16.4214 23.3325 15.9539 22.7538 15.9539H18.0461V11.2462Z" stroke="#629584" stroke-width="2" mask="url(#path-1-outside-1_0_1)"/>
<path d="M5.54545 1H11V5.54545H5.54545V11H1V5.09091C1 2.81818 2.81818 1 5.54545 1Z" fill="#629584" stroke="#629584"/>
<path d="M33 5.54545L33 11L28.4545 11L28.4545 5.54545L23 5.54545L23 1L28.9091 1C31.1818 1 33 2.81818 33 5.54545Z" fill="#629584" stroke="#629584"/>
<path d="M28.4545 33L23 33L23 28.4545L28.4545 28.4545L28.4545 23L33 23L33 28.9091C33 31.1818 31.1818 33 28.4545 33Z" fill="#629584" stroke="#629584"/>
<path d="M1 28.4545L1 23L5.54545 23L5.54545 28.4545L11 28.4545L11 33L5.09091 33C2.81818 33 1 31.1818 1 28.4545Z" fill="#629584" stroke="#629584"/>
</svg>
