<svg width="180" height="277" viewBox="0 0 180 277" fill="none" xmlns="http://www.w3.org/2000/svg">
<rect width="180" height="277" fill="#F5F5F5"/>
<rect width="180" height="277" fill="#D9D9D9"/>
<path d="M21.1035 53.3194H18.227C18.1745 52.9579 18.0672 52.6369 17.9052 52.3563C17.7432 52.0714 17.5353 51.829 17.2813 51.6292C17.0274 51.4293 16.7341 51.2762 16.4013 51.1699C16.073 51.0636 15.7161 51.0105 15.3309 51.0105C14.6347 51.0105 14.0283 51.1784 13.5117 51.5144C12.9951 51.846 12.5945 52.3308 12.3099 52.9686C12.0253 53.6021 11.883 54.3718 11.883 55.2774C11.883 56.2087 12.0253 56.991 12.3099 57.6246C12.5989 58.2582 13.0017 58.7365 13.5183 59.0597C14.0349 59.3828 14.6325 59.5444 15.3112 59.5444C15.6921 59.5444 16.0445 59.4955 16.3685 59.3977C16.6969 59.2999 16.988 59.1575 17.2419 58.9704C17.4959 58.779 17.706 58.5473 17.8724 58.2752C18.0431 58.003 18.1614 57.6926 18.227 57.344L21.1035 57.3567C21.0291 57.9563 20.843 58.5345 20.5453 59.0916C20.2519 59.6443 19.8557 60.1397 19.3566 60.5777C18.8619 61.0114 18.2708 61.3558 17.5834 61.6109C16.9004 61.8618 16.1277 61.9872 15.2652 61.9872C14.0656 61.9872 12.9929 61.7236 12.0472 61.1964C11.1059 60.6691 10.3616 59.9058 9.81434 58.9066C9.27145 57.9074 9 56.6976 9 55.2774C9 53.853 9.27583 52.6412 9.82748 51.6419C10.3791 50.6427 11.1278 49.8815 12.0735 49.3585C13.0192 48.8313 14.0831 48.5677 15.2652 48.5677C16.0445 48.5677 16.7669 48.674 17.4324 48.8866C18.1022 49.0992 18.6955 49.4096 19.2121 49.8178C19.7287 50.2217 20.1491 50.7171 20.473 51.3039C20.8014 51.8907 21.0116 52.5625 21.1035 53.3194Z" fill="black"/>
<path d="M27.6478 62C26.6277 62 25.7455 61.7895 25.0012 61.3686C24.2613 60.9434 23.6899 60.3523 23.2871 59.5954C22.8843 58.8343 22.6829 57.952 22.6829 56.9485C22.6829 55.9365 22.8843 55.0521 23.2871 54.2952C23.6899 53.5341 24.2613 52.9431 25.0012 52.5221C25.7455 52.0969 26.6277 51.8843 27.6478 51.8843C28.6679 51.8843 29.5479 52.0969 30.2878 52.5221C31.0321 52.9431 31.6057 53.5341 32.0085 54.2952C32.4113 55.0521 32.6127 55.9365 32.6127 56.9485C32.6127 57.952 32.4113 58.8343 32.0085 59.5954C31.6057 60.3523 31.0321 60.9434 30.2878 61.3686C29.5479 61.7895 28.6679 62 27.6478 62ZM27.6609 59.8952C28.125 59.8952 28.5125 59.7677 28.8233 59.5125C29.1342 59.2532 29.3684 58.9002 29.526 58.4538C29.688 58.0073 29.769 57.4992 29.769 56.9294C29.769 56.3596 29.688 55.8515 29.526 55.405C29.3684 54.9585 29.1342 54.6056 28.8233 54.3462C28.5125 54.0869 28.125 53.9572 27.6609 53.9572C27.1925 53.9572 26.7984 54.0869 26.4788 54.3462C26.1636 54.6056 25.925 54.9585 25.763 55.405C25.6054 55.8515 25.5266 56.3596 25.5266 56.9294C25.5266 57.4992 25.6054 58.0073 25.763 58.4538C25.925 58.9002 26.1636 59.2532 26.4788 59.5125C26.7984 59.7677 27.1925 59.8952 27.6609 59.8952Z" fill="black"/>
<path d="M43.5111 52.0118L39.9844 61.8087H36.8321L33.3055 52.0118H36.2608L38.3557 59.0214H38.4608L40.5492 52.0118H43.5111Z" fill="black"/>
<path d="M49.2147 62C48.1771 62 47.284 61.7959 46.5353 61.3877C45.791 60.9752 45.2175 60.3927 44.8147 59.6401C44.4119 58.8832 44.2105 57.9882 44.2105 56.9549C44.2105 55.9472 44.4119 55.0627 44.8147 54.3016C45.2175 53.5405 45.7844 52.9473 46.5156 52.5221C47.2511 52.0969 48.1136 51.8843 49.1031 51.8843C49.7686 51.8843 50.3881 51.9885 50.9616 52.1968C51.5396 52.4009 52.043 52.7092 52.4721 53.1216C52.9055 53.5341 53.2427 54.0528 53.4835 54.6779C53.7243 55.2987 53.8447 56.0258 53.8447 56.8592V57.6055H45.3269V55.9216H51.2112C51.2112 55.5304 51.1236 55.1839 50.9485 54.882C50.7734 54.5801 50.5304 54.3441 50.2195 54.174C49.9131 53.9997 49.5562 53.9125 49.1491 53.9125C48.7244 53.9125 48.3479 54.0082 48.0195 54.1995C47.6955 54.3866 47.4416 54.6396 47.2577 54.9585C47.0738 55.2732 46.9797 55.624 46.9753 56.0109V57.6118C46.9753 58.0966 47.0672 58.5154 47.2511 58.8683C47.4394 59.2213 47.7043 59.4934 48.0458 59.6847C48.3873 59.8761 48.7922 59.9718 49.2607 59.9718C49.5716 59.9718 49.8561 59.9292 50.1144 59.8442C50.3728 59.7591 50.5939 59.6316 50.7777 59.4615C50.9616 59.2914 51.1017 59.0831 51.1981 58.8364L53.7856 59.0023C53.6542 59.6061 53.385 60.1333 52.9778 60.5841C52.575 61.0305 52.054 61.3792 51.4148 61.6301C50.7799 61.8767 50.0466 62 49.2147 62Z" fill="black"/>
<path d="M55.6704 61.8087V52.0118H58.3827V53.7212H58.4877C58.6716 53.1131 58.9803 52.6539 59.4137 52.3435C59.8472 52.0289 60.3463 51.8715 60.9111 51.8715C61.0512 51.8715 61.2022 51.88 61.3642 51.897C61.5262 51.914 61.6685 51.9374 61.7911 51.9672V54.3781C61.6597 54.3399 61.478 54.3058 61.246 54.2761C61.0139 54.2463 60.8016 54.2314 60.609 54.2314C60.1974 54.2314 59.8296 54.3186 59.5057 54.4929C59.1861 54.663 58.9321 54.9011 58.7439 55.2073C58.56 55.5134 58.468 55.8664 58.468 56.2661V61.8087H55.6704Z" fill="black"/>
<path d="M75.8779 48.7462H78.7215V57.2292C78.7215 58.1816 78.4873 59.015 78.0188 59.7294C77.5547 60.4437 76.9046 61.0008 76.0683 61.4005C75.2321 61.7959 74.258 61.9936 73.1459 61.9936C72.0295 61.9936 71.0531 61.7959 70.2169 61.4005C69.3807 61.0008 68.7305 60.4437 68.2664 59.7294C67.8023 59.015 67.5703 58.1816 67.5703 57.2292V48.7462H70.4139V56.9932C70.4139 57.4907 70.5256 57.9329 70.7488 58.3198C70.9765 58.7068 71.2961 59.0108 71.7077 59.2319C72.1192 59.453 72.5986 59.5636 73.1459 59.5636C73.6975 59.5636 74.177 59.453 74.5841 59.2319C74.9957 59.0108 75.3131 58.7068 75.5364 58.3198C75.7641 57.9329 75.8779 57.4907 75.8779 56.9932V48.7462Z" fill="black"/>
<path d="M83.8062 56.1449V61.8087H81.0086V52.0118H83.6749V53.7403H83.7931C84.0164 53.1705 84.3907 52.7198 84.9161 52.3882C85.4415 52.0522 86.0785 51.8843 86.8272 51.8843C87.5277 51.8843 88.1384 52.0331 88.6595 52.3308C89.1805 52.6284 89.5854 53.0536 89.8744 53.6064C90.1634 54.1549 90.3078 54.8097 90.3078 55.5708V61.8087H87.5102V56.0556C87.5146 55.456 87.3569 54.9883 87.0373 54.6524C86.7177 54.3122 86.2777 54.1421 85.7173 54.1421C85.3408 54.1421 85.008 54.2208 84.7191 54.3781C84.4345 54.5355 84.2112 54.7651 84.0492 55.067C83.8916 55.3646 83.8106 55.7239 83.8062 56.1449Z" fill="black"/>
<path d="M95.3893 61.9936C94.7457 61.9936 94.1721 61.8852 93.6686 61.6683C93.1652 61.4472 92.7667 61.1219 92.4734 60.6925C92.1844 60.2588 92.04 59.7188 92.04 59.0724C92.04 58.5282 92.1428 58.0711 92.3486 57.7011C92.5544 57.3312 92.8346 57.0336 93.1892 56.8082C93.5439 56.5828 93.9467 56.4128 94.3976 56.2979C94.8529 56.1831 95.3302 56.1024 95.8293 56.0556C96.416 55.9961 96.8888 55.9408 97.2478 55.8897C97.6068 55.8345 97.8673 55.7537 98.0293 55.6474C98.1913 55.5411 98.2723 55.3838 98.2723 55.1754V55.1371C98.2723 54.7332 98.141 54.4207 97.8783 54.1995C97.62 53.9784 97.2522 53.8679 96.775 53.8679C96.2715 53.8679 95.8709 53.9763 95.5732 54.1932C95.2754 54.4058 95.0784 54.6737 94.9821 54.9968L92.3946 54.7927C92.5259 54.1974 92.7843 53.6829 93.1695 53.2492C93.5548 52.8112 94.0517 52.4753 94.6603 52.2415C95.2732 52.0033 95.9825 51.8843 96.7881 51.8843C97.3485 51.8843 97.8848 51.9481 98.3971 52.0756C98.9137 52.2032 99.3712 52.4009 99.7696 52.6688C100.172 52.9367 100.49 53.2811 100.722 53.7021C100.954 54.1188 101.07 54.6184 101.07 55.2009V61.8087H98.4168V60.4501H98.338C98.176 60.7563 97.9593 61.0263 97.6878 61.2601C97.4164 61.4897 97.0902 61.6705 96.7093 61.8023C96.3284 61.9298 95.8884 61.9936 95.3893 61.9936ZM96.1905 60.1184C96.602 60.1184 96.9654 60.0398 97.2807 59.8825C97.5959 59.7209 97.8432 59.504 98.0228 59.2319C98.2023 58.9598 98.292 58.6515 98.292 58.3071V57.2674C98.2044 57.3227 98.084 57.3737 97.9308 57.4205C97.782 57.463 97.6134 57.5034 97.4251 57.5417C97.2369 57.5757 97.0486 57.6076 96.8603 57.6374C96.6721 57.6629 96.5013 57.6863 96.3481 57.7075C96.0197 57.7543 95.733 57.8287 95.4878 57.9308C95.2426 58.0328 95.0522 58.171 94.9164 58.3453C94.7807 58.5154 94.7128 58.728 94.7128 58.9831C94.7128 59.3531 94.8508 59.6358 95.1266 59.8314C95.4068 60.0228 95.7614 60.1184 96.1905 60.1184Z" fill="black"/>
<path d="M112.284 52.0118L108.757 61.8087H105.605L102.078 52.0118H105.033L107.128 59.0214H107.233L109.322 52.0118H112.284Z" fill="black"/>
<path d="M116.321 61.9936C115.677 61.9936 115.104 61.8852 114.6 61.6683C114.097 61.4472 113.698 61.1219 113.405 60.6925C113.116 60.2588 112.972 59.7188 112.972 59.0724C112.972 58.5282 113.074 58.0711 113.28 57.7011C113.486 57.3312 113.766 57.0336 114.121 56.8082C114.475 56.5828 114.878 56.4128 115.329 56.2979C115.785 56.1831 116.262 56.1024 116.761 56.0556C117.348 55.9961 117.82 55.9408 118.179 55.8897C118.538 55.8345 118.799 55.7537 118.961 55.6474C119.123 55.5411 119.204 55.3838 119.204 55.1754V55.1371C119.204 54.7332 119.073 54.4207 118.81 54.1995C118.552 53.9784 118.184 53.8679 117.707 53.8679C117.203 53.8679 116.802 53.9763 116.505 54.1932C116.207 54.4058 116.01 54.6737 115.914 54.9968L113.326 54.7927C113.457 54.1974 113.716 53.6829 114.101 53.2492C114.486 52.8112 114.983 52.4753 115.592 52.2415C116.205 52.0033 116.914 51.8843 117.72 51.8843C118.28 51.8843 118.816 51.9481 119.329 52.0756C119.845 52.2032 120.303 52.4009 120.701 52.6688C121.104 52.9367 121.421 53.2811 121.653 53.7021C121.886 54.1188 122.002 54.6184 122.002 55.2009V61.8087H119.348V60.4501H119.27C119.108 60.7563 118.891 61.0263 118.619 61.2601C118.348 61.4897 118.022 61.6705 117.641 61.8023C117.26 61.9298 116.82 61.9936 116.321 61.9936ZM117.122 60.1184C117.534 60.1184 117.897 60.0398 118.212 59.8825C118.527 59.7209 118.775 59.504 118.954 59.2319C119.134 58.9598 119.224 58.6515 119.224 58.3071V57.2674C119.136 57.3227 119.016 57.3737 118.862 57.4205C118.714 57.463 118.545 57.5034 118.357 57.5417C118.168 57.5757 117.98 57.6076 117.792 57.6374C117.604 57.6629 117.433 57.6863 117.28 57.7075C116.951 57.7543 116.665 57.8287 116.419 57.9308C116.174 58.0328 115.984 58.171 115.848 58.3453C115.712 58.5154 115.644 58.728 115.644 58.9831C115.644 59.3531 115.782 59.6358 116.058 59.8314C116.338 60.0228 116.693 60.1184 117.122 60.1184Z" fill="black"/>
<path d="M124.172 61.8087V52.0118H126.97V61.8087H124.172ZM125.577 50.749C125.161 50.749 124.805 50.615 124.507 50.3472C124.214 50.075 124.067 49.7497 124.067 49.3713C124.067 48.9971 124.214 48.6761 124.507 48.4082C124.805 48.1361 125.161 48 125.577 48C125.993 48 126.348 48.1361 126.641 48.4082C126.939 48.6761 127.088 48.9971 127.088 49.3713C127.088 49.7497 126.939 50.075 126.641 50.3472C126.348 50.615 125.993 50.749 125.577 50.749Z" fill="black"/>
<path d="M132.008 48.7462V61.8087H129.211V48.7462H132.008Z" fill="black"/>
<path d="M137.126 61.9936C136.482 61.9936 135.909 61.8852 135.405 61.6683C134.902 61.4472 134.503 61.1219 134.21 60.6925C133.921 60.2588 133.777 59.7188 133.777 59.0724C133.777 58.5282 133.88 58.0711 134.085 57.7011C134.291 57.3312 134.571 57.0336 134.926 56.8082C135.281 56.5828 135.683 56.4128 136.134 56.2979C136.59 56.1831 137.067 56.1024 137.566 56.0556C138.153 55.9961 138.626 55.9408 138.985 55.8897C139.344 55.8345 139.604 55.7537 139.766 55.6474C139.928 55.5411 140.009 55.3838 140.009 55.1754V55.1371C140.009 54.7332 139.878 54.4207 139.615 54.1995C139.357 53.9784 138.989 53.8679 138.512 53.8679C138.008 53.8679 137.608 53.9763 137.31 54.1932C137.012 54.4058 136.815 54.6737 136.719 54.9968L134.131 54.7927C134.263 54.1974 134.521 53.6829 134.906 53.2492C135.292 52.8112 135.788 52.4753 136.397 52.2415C137.01 52.0033 137.719 51.8843 138.525 51.8843C139.085 51.8843 139.622 51.9481 140.134 52.0756C140.65 52.2032 141.108 52.4009 141.506 52.6688C141.909 52.9367 142.227 53.2811 142.459 53.7021C142.691 54.1188 142.807 54.6184 142.807 55.2009V61.8087H140.153V60.4501H140.075C139.913 60.7563 139.696 61.0263 139.425 61.2601C139.153 61.4897 138.827 61.6705 138.446 61.8023C138.065 61.9298 137.625 61.9936 137.126 61.9936ZM137.927 60.1184C138.339 60.1184 138.702 60.0398 139.017 59.8825C139.333 59.7209 139.58 59.504 139.759 59.2319C139.939 58.9598 140.029 58.6515 140.029 58.3071V57.2674C139.941 57.3227 139.821 57.3737 139.668 57.4205C139.519 57.463 139.35 57.5034 139.162 57.5417C138.974 57.5757 138.785 57.6076 138.597 57.6374C138.409 57.6629 138.238 57.6863 138.085 57.7075C137.756 57.7543 137.47 57.8287 137.224 57.9308C136.979 58.0328 136.789 58.171 136.653 58.3453C136.517 58.5154 136.45 58.728 136.45 58.9831C136.45 59.3531 136.587 59.6358 136.863 59.8314C137.143 60.0228 137.498 60.1184 137.927 60.1184Z" fill="black"/>
<path d="M145.03 61.8087V48.7462H147.827V53.6574H147.913C148.035 53.3938 148.213 53.1259 148.445 52.8538C148.681 52.5774 148.988 52.3478 149.364 52.1649C149.745 51.9778 150.218 51.8843 150.783 51.8843C151.518 51.8843 152.197 52.0714 152.818 52.4456C153.44 52.8155 153.937 53.3746 154.309 54.123C154.681 54.8671 154.867 55.8005 154.867 56.923C154.867 58.0158 154.686 58.9385 154.322 59.6911C153.963 60.4395 153.473 61.0071 152.851 61.3941C152.234 61.7768 151.542 61.9681 150.776 61.9681C150.233 61.9681 149.771 61.8809 149.39 61.7066C149.014 61.5323 148.705 61.3133 148.464 61.0497C148.224 60.7818 148.04 60.5118 147.913 60.2396H147.788V61.8087H145.03ZM147.768 56.9103C147.768 57.4928 147.851 58.0009 148.018 58.4346C148.184 58.8683 148.425 59.2064 148.74 59.4487C149.055 59.6869 149.439 59.8059 149.889 59.8059C150.345 59.8059 150.73 59.6847 151.045 59.4424C151.361 59.1957 151.599 58.8556 151.761 58.4219C151.928 57.9839 152.011 57.48 152.011 56.9103C152.011 56.3447 151.93 55.8472 151.768 55.4178C151.606 54.9883 151.367 54.6524 151.052 54.41C150.737 54.1677 150.349 54.0465 149.889 54.0465C149.434 54.0465 149.049 54.1634 148.734 54.3973C148.423 54.6311 148.184 54.9628 148.018 55.3923C147.851 55.8217 147.768 56.3277 147.768 56.9103Z" fill="black"/>
<path d="M159.532 48.7462V61.8087H156.734V48.7462H159.532Z" fill="black"/>
<path d="M166.37 62C165.332 62 164.439 61.7959 163.691 61.3877C162.946 60.9752 162.373 60.3927 161.97 59.6401C161.567 58.8832 161.366 57.9882 161.366 56.9549C161.366 55.9472 161.567 55.0627 161.97 54.3016C162.373 53.5405 162.94 52.9473 163.671 52.5221C164.406 52.0969 165.269 51.8843 166.258 51.8843C166.924 51.8843 167.543 51.9885 168.117 52.1968C168.695 52.4009 169.198 52.7092 169.627 53.1216C170.061 53.5341 170.398 54.0528 170.639 54.6779C170.88 55.2987 171 56.0258 171 56.8592V57.6055H162.482V55.9216H168.367C168.367 55.5304 168.279 55.1839 168.104 54.882C167.929 54.5801 167.686 54.3441 167.375 54.174C167.068 53.9997 166.712 53.9125 166.304 53.9125C165.88 53.9125 165.503 54.0082 165.175 54.1995C164.851 54.3866 164.597 54.6396 164.413 54.9585C164.229 55.2732 164.135 55.624 164.131 56.0109V57.6118C164.131 58.0966 164.223 58.5154 164.406 58.8683C164.595 59.2213 164.86 59.4934 165.201 59.6847C165.543 59.8761 165.948 59.9718 166.416 59.9718C166.727 59.9718 167.011 59.9292 167.27 59.8442C167.528 59.7591 167.749 59.6316 167.933 59.4615C168.117 59.2914 168.257 59.0831 168.353 58.8364L170.941 59.0023C170.81 59.6061 170.54 60.1333 170.133 60.5841C169.73 61.0305 169.209 61.3792 168.57 61.6301C167.935 61.8767 167.202 62 166.37 62Z" fill="black"/>
</svg>
