<svg width="35" height="37" viewBox="0 0 35 37" fill="none" xmlns="http://www.w3.org/2000/svg">
<path d="M10.5625 1.88367L10 2.89468H2.5C1.11719 2.89468 0 3.90568 0 5.15706C0 6.40844 1.11719 7.41945 2.5 7.41945H32.5C33.8828 7.41945 35 6.40844 35 5.15706C35 3.90568 33.8828 2.89468 32.5 2.89468H25L24.4375 1.88367C24.0156 1.11305 23.1484 0.632294 22.2031 0.632294H12.7969C11.8516 0.632294 10.9844 1.11305 10.5625 1.88367ZM32.5 9.68183H2.5L4.15625 33.649C4.28125 35.4377 5.92188 36.8304 7.89844 36.8304H27.1016C29.0781 36.8304 30.7187 35.4377 30.8438 33.649L32.5 9.68183Z" fill="#243642"/>
</svg>
