<svg width="40" height="37" viewBox="0 0 40 37" fill="none" xmlns="http://www.w3.org/2000/svg">
<path d="M37.2273 1.80562C35.4985 0.241184 32.7041 0.241184 30.9754 1.80562L28.5993 3.94869L36.3274 10.9422L38.7034 8.79201C40.4322 7.22758 40.4322 4.69876 38.7034 3.13432L37.2273 1.80562ZM13.609 17.5214C13.1274 17.9572 12.7564 18.493 12.5433 19.0859L10.2067 25.4293C9.9778 26.0437 10.1594 26.7223 10.6646 27.1867C11.1698 27.651 11.9197 27.8081 12.6064 27.601L19.6162 25.4865C20.2635 25.2936 20.8555 24.9579 21.3449 24.5221L34.5513 12.5638L26.8153 5.56313L13.609 17.5214ZM7.57808 4.82734C3.39435 4.82734 0 7.89907 0 11.6852V29.9726C0 33.7587 3.39435 36.8304 7.57808 36.8304H27.7863C31.97 36.8304 35.3643 33.7587 35.3643 29.9726V23.1148C35.3643 21.8504 34.2355 20.8289 32.8383 20.8289C31.4411 20.8289 30.3123 21.8504 30.3123 23.1148V29.9726C30.3123 31.237 29.1835 32.2586 27.7863 32.2586H7.57808C6.18087 32.2586 5.05205 31.237 5.05205 29.9726V11.6852C5.05205 10.4207 6.18087 9.39921 7.57808 9.39921H15.1562C16.5534 9.39921 17.6822 8.37769 17.6822 7.11328C17.6822 5.84887 16.5534 4.82734 15.1562 4.82734H7.57808Z" fill="#243642"/>
</svg>
